<svg xmlns="http://www.w3.org/2000/svg" width="58" height="100"><path d="M222 15c-31 25-268 230-88 623h179c179-393-58-598-88-623h-3z" stroke="#000" stroke-width="10" fill="#ECECEC" transform="scale(.12975 .13038)"/><path d="M30 35c-4 0-7 1-9 4s-2 7 0 10a9 9 0 0 0 16-5c0-4-3-8-7-9zm0 1c3 0 6 1 7 4 2 2 2 6 0 8a8 8 0 0 1-14-4c0-4 3-7 7-8z" fill="#CCC"/><path d="m102 177 44-80 61-69 17-13 64 68 51 81 4 18-242-1" stroke="#000" fill="red" transform="scale(.12975 .13038)"/><path d="M78 481s-107-2-42 270c0 0 6-227 62-199m271-71s107-2 42 270c0 0-6-227-63-199" stroke="#000" stroke-width="10" fill="red" transform="scale(.12975 .13038)"/><path d="m108 583 26 55 180-1 21-54H108z" stroke="#000" fill="#B3B3B3" transform="scale(.12975 .13038)"/><path d="m51 66-3 7-1-2-2 1 2-10 5 3s8 5 2 32c3-28-3-31-3-31zM4 98s-1-29 8-29l1 3-4 1-3 8-2 17z" fill="#D20000"/><path d="m35 76 1 7h5l2-6v-1h-8z" fill="#999"/><path d="M32 62h-2l-1 10s4 0 5 4h8c-3-12-8-14-10-14zM14 77l3 6h4l-2-7z" fill="#CCC"/><path d="M222 15c-31 25-268 230-88 623h179c179-393-58-598-88-623h-3zM102 179h238" stroke="#000" stroke-width="10" fill="none" transform="scale(.12975 .13038)"/><g stroke="#000"><path d="M287 331a64 64 0 1 1-127 0 64 64 0 1 1 127 0z" stroke-width="8" fill="#B3B3B3" transform="scale(.12975 .13038)"/><path d="M265 331a41 41 0 1 1-83 0 41 41 0 0 1 83 0z" stroke-width="12.3" fill="#80E5FF" transform="scale(.12975 .13038)"/><g stroke-width="10"><path d="M111 584h224" fill="none" transform="scale(.12975 .13038)"/><path d="M214 479h18v272h-18V479z" stroke-linecap="square" fill="red" transform="scale(.12975 .13038)"/></g></g><path d="M42 74s11-24 2-47c1 41-11 47-11 47h9z" fill="#CCC"/><path d="m31 38 3 3-7 8-3-4 7-7z" fill="#FFF"/><path d="M265 331a41 41 0 1 1-83 0 41 41 0 0 1 83 0z" stroke="#000" stroke-width="12.3" fill="none" transform="scale(.12975 .13038)"/><path d="M41 21S37 11 29 5c7 14 4 16 4 16h8z" fill="#D20000"/><path d="M369 481s107-2 42 270c0 0-6-227-63-199M78 481s-107-2-42 270c0 0 6-227 62-199" stroke="#000" stroke-width="10" fill="none" transform="scale(.12975 .13038)"/><path d="M15 21S22 7 28 4c6-4-13 17-13 17zm-4 36s-3-19 3-31c4-3 9-1 9 0-2 11-10 32-12 31z" fill="#FFF"/><g stroke="#000" stroke-width="5"><path d="M212 475h21v166h-21V475z" fill="#7F7F7F" transform="scale(.12975 .13038)"/><path d="M212 645h22v110h-22V645z" fill="#FFF" transform="scale(.12975 .13038)"/></g><g stroke="#000"><path d="M115 427h215v150H115V427z" stroke-width="10.2" fill="#7F7F7F" transform="scale(.12975 .13038)"/><path d="m159 643-24 108zm130 1 24 107zM135 752h176M159 642v-1zm3 2 122 1zm-6 19 132 1zm0 16 135 1zm-4 14h144zm-6 14 153 1zm-2 12 158 1zm-4 12 167 1zm-1 10h169zm0 7 170-1" stroke-width="10" fill="none" transform="scale(.12975 .13038)"/></g></svg>